<svg width="24" height="24" viewBox="0 0 24 24" fill="none" xmlns="http://www.w3.org/2000/svg">
<path d="M8.8 6H15.2M8.8 6C7.11984 6 6.27976 6 5.63803 6.32698C5.07354 6.6146 4.6146 7.07354 4.32698 7.63803C4 8.27976 4 9.11984 4 10.8V16.2C4 17.8802 4 18.7202 4.32698 19.362C4.6146 19.9265 5.07354 20.3854 5.63803 20.673C6.27976 21 7.11984 21 8.8 21H12.0118C13.0593 21 14.1076 20.9869 15.1566 20.971C16.8493 20.9455 17.6957 20.9328 18.3249 20.6057C18.8841 20.3151 19.326 19.8701 19.6127 19.309C19.9355 18.6775 19.9423 17.8372 19.9561 16.1564L20 10.8C20 9.11984 20 8.27976 19.673 7.63803C19.3854 7.07354 18.9265 6.6146 18.362 6.32698C17.7202 6 16.8802 6 15.2 6M8.8 6V4M8.8 6V8M15.2 6V4M15.2 6V8" stroke="white" stroke-width="2" stroke-linecap="round"/>
</svg>
