<svg width="68" height="68" viewBox="0 0 68 68" fill="none" xmlns="http://www.w3.org/2000/svg">
<path d="M32.769 28.1453H38.164L30.298 49.2814H26.8798L21.979 36.6843L17.2842 49.2814H13.9072L6 28.1453H11.1479L15.8428 40.1506L20.2905 28.1453H23.6675L28.3624 40.1506L32.769 28.1453Z" fill="white"/>
<path d="M50.757 44.9696C54.1752 44.9696 57.1404 42.2642 57.1404 38.6288C57.1404 35.1625 54.4223 32.4148 51.0041 32.4148C47.2976 32.4148 44.6207 35.1625 44.6207 38.6288C44.6207 42.2642 47.5447 44.9696 50.757 44.9696ZM39.7199 38.6288V18H44.6207V29.3712C46.5563 28.1453 48.5331 27.3421 51.0041 27.3421C57.1404 27.3421 62 32.4148 62 38.6288C62 44.9696 56.8933 50 50.757 50C44.8266 50 39.7199 44.9696 39.7199 38.6288Z" fill="white"/>
</svg>
